<svg width="18" height="17" viewBox="0 0 18 17" fill="none" xmlns="http://www.w3.org/2000/svg">
<path d="M9 13.1813C10.05 13.1813 10.9323 12.824 11.6469 12.1094C12.3615 11.3948 12.7188 10.5125 12.7188 9.4625C12.7188 8.39792 12.3615 7.51198 11.6469 6.80469C10.9323 6.0974 10.05 5.74375 9 5.74375C7.93542 5.74375 7.04948 6.0974 6.34219 6.80469C5.6349 7.51198 5.28125 8.39792 5.28125 9.4625C5.28125 10.5125 5.6349 11.3948 6.34219 12.1094C7.04948 12.824 7.93542 13.1813 9 13.1813ZM1.5625 16.375C1.2125 16.375 0.90625 16.2437 0.64375 15.9812C0.38125 15.7187 0.25 15.4125 0.25 15.0625V3.84063C0.25 3.50521 0.38125 3.2026 0.64375 2.93281C0.90625 2.66302 1.2125 2.52813 1.5625 2.52813H4.77813L6.375 0.625H11.625L13.2219 2.52813H16.4375C16.7729 2.52813 17.0755 2.66302 17.3453 2.93281C17.6151 3.2026 17.75 3.50521 17.75 3.84063V15.0625C17.75 15.4125 17.6151 15.7187 17.3453 15.9812C17.0755 16.2437 16.7729 16.375 16.4375 16.375H1.5625Z" fill="#FF385C"/>
</svg>
