<svg width="26" height="26" viewBox="0 0 26 26" fill="none" xmlns="http://www.w3.org/2000/svg">
<path d="M20.5 13H15.5V14.875H20.5V13Z" fill="#565656"/>
<path d="M20.5 16.75H15.5V18.625H20.5V16.75Z" fill="#565656"/>
<path d="M23 6.75H16.75V3C16.75 1.625 15.625 0.5 14.25 0.5H11.75C10.375 0.5 9.25 1.625 9.25 3V6.75H3C1.625 6.75 0.5 7.875 0.5 9.25V23C0.5 24.375 1.625 25.5 3 25.5H23C24.375 25.5 25.5 24.375 25.5 23V9.25C25.5 7.875 24.375 6.75 23 6.75ZM11.75 6.75V3H14.25V6.75V9.25H11.75V6.75ZM23 23H3V9.25H9.25C9.25 10.625 10.375 11.75 11.75 11.75H14.25C15.625 11.75 16.75 10.625 16.75 9.25H23V23Z" fill="#565656"/>
<path d="M9.25 16.75C10.2855 16.75 11.125 15.9105 11.125 14.875C11.125 13.8395 10.2855 13 9.25 13C8.21447 13 7.375 13.8395 7.375 14.875C7.375 15.9105 8.21447 16.75 9.25 16.75Z" fill="#565656"/>
<path d="M11.85 18.225C11.05 17.875 10.175 17.6875 9.25 17.6875C8.325 17.6875 7.45 17.875 6.65 18.225C5.95 18.525 5.5 19.2 5.5 19.9625V20.5H13V19.9625C13 19.2 12.55 18.525 11.85 18.225Z" fill="#565656"/>
</svg>
