<svg width="25" height="25" viewBox="0 0 25 25" fill="none" xmlns="http://www.w3.org/2000/svg">
<g clip-path="url(#clip0_7_261)">
<path d="M12.002 24.6553C18.6294 24.6553 24.002 19.2827 24.002 12.6553C24.002 6.02786 18.6294 0.655273 12.002 0.655273C5.37454 0.655273 0.00195312 6.02786 0.00195312 12.6553C0.00195312 19.2827 5.37454 24.6553 12.002 24.6553Z" fill="#1877F1"/>
<path d="M15.0192 13.1249H12.8779V20.9695H9.63376V13.1249H8.09082V10.3681H9.63376V8.58403C9.63376 7.30827 10.2398 5.31055 12.9068 5.31055L15.3099 5.3206V7.99663H13.5663C13.2803 7.99663 12.8782 8.13952 12.8782 8.7481V10.3706H15.3026L15.0192 13.1249Z" fill="white"/>
</g>
<defs>
<clipPath id="clip0_7_261">
<rect width="24" height="24" fill="white" transform="translate(0.00195312 0.655273)"/>
</clipPath>
</defs>
</svg>
