<svg width="43" height="44" viewBox="0 0 43 44" fill="none" xmlns="http://www.w3.org/2000/svg">
<rect x="0.610352" y="0.34082" width="42.3193" height="43.4295" rx="10" fill="#FF385C"/>
<path d="M29.77 15.8982H27.59C27.7 15.5801 27.77 15.2312 27.77 14.872C27.77 13.1684 26.43 11.7933 24.77 11.7933C23.72 11.7933 22.81 12.3474 22.27 13.1787L21.77 13.8663L21.27 13.1684C20.73 12.3474 19.82 11.7933 18.77 11.7933C17.11 11.7933 15.77 13.1684 15.77 14.872C15.77 15.2312 15.84 15.5801 15.95 15.8982H13.77C12.66 15.8982 11.78 16.8116 11.78 17.9507L11.77 29.2393C11.77 30.3784 12.66 31.2917 13.77 31.2917H29.77C30.88 31.2917 31.77 30.3784 31.77 29.2393V17.9507C31.77 16.8116 30.88 15.8982 29.77 15.8982ZM24.77 13.8457C25.32 13.8457 25.77 14.3075 25.77 14.872C25.77 15.4364 25.32 15.8982 24.77 15.8982C24.22 15.8982 23.77 15.4364 23.77 14.872C23.77 14.3075 24.22 13.8457 24.77 13.8457ZM18.77 13.8457C19.32 13.8457 19.77 14.3075 19.77 14.872C19.77 15.4364 19.32 15.8982 18.77 15.8982C18.22 15.8982 17.77 15.4364 17.77 14.872C17.77 14.3075 18.22 13.8457 18.77 13.8457ZM29.77 29.2393H13.77V27.1868H29.77V29.2393ZM29.77 24.1081H13.77V17.9507H18.85L16.77 20.8549L18.39 22.0556L21.77 17.3349L25.15 22.0556L26.77 20.8549L24.69 17.9507H29.77V24.1081Z" fill="white"/>
</svg>
