<svg width="30" height="30" viewBox="0 0 30 30" fill="none" xmlns="http://www.w3.org/2000/svg">
<g clip-path="url(#clip0_2202_958)">
<path d="M25 7.5H22.275C22.4125 7.1125 22.5 6.6875 22.5 6.25C22.5 4.175 20.825 2.5 18.75 2.5C17.4375 2.5 16.3 3.175 15.625 4.1875L15 5.025L14.375 4.175C13.7 3.175 12.5625 2.5 11.25 2.5C9.175 2.5 7.5 4.175 7.5 6.25C7.5 6.6875 7.5875 7.1125 7.725 7.5H5C3.6125 7.5 2.5125 8.6125 2.5125 10L2.5 23.75C2.5 25.1375 3.6125 26.25 5 26.25H25C26.3875 26.25 27.5 25.1375 27.5 23.75V10C27.5 8.6125 26.3875 7.5 25 7.5ZM18.75 5C19.4375 5 20 5.5625 20 6.25C20 6.9375 19.4375 7.5 18.75 7.5C18.0625 7.5 17.5 6.9375 17.5 6.25C17.5 5.5625 18.0625 5 18.75 5ZM11.25 5C11.9375 5 12.5 5.5625 12.5 6.25C12.5 6.9375 11.9375 7.5 11.25 7.5C10.5625 7.5 10 6.9375 10 6.25C10 5.5625 10.5625 5 11.25 5ZM25 23.75H5V21.25H25V23.75ZM25 17.5H5V10H11.35L8.75 13.5375L10.775 15L15 9.25L19.225 15L21.25 13.5375L18.65 10H25V17.5Z" fill="#FF385C"/>
</g>
<defs>
<clipPath id="clip0_2202_958">
<rect width="30" height="30" fill="white"/>
</clipPath>
</defs>
</svg>
