<svg width="25" height="24" viewBox="0 0 25 24" fill="none" xmlns="http://www.w3.org/2000/svg">
<g clip-path="url(#clip0_220_1919)">
<path d="M13.6016 3C8.63156 3 4.60156 7.03 4.60156 12H1.60156L5.49156 15.89L5.56156 16.03L9.60156 12H6.60156C6.60156 8.13 9.73156 5 13.6016 5C17.4716 5 20.6016 8.13 20.6016 12C20.6016 15.87 17.4716 19 13.6016 19C11.6716 19 9.92156 18.21 8.66156 16.94L7.24156 18.36C8.87156 19.99 11.1116 21 13.6016 21C18.5716 21 22.6016 16.97 22.6016 12C22.6016 7.03 18.5716 3 13.6016 3ZM12.6016 8V13L16.8516 15.52L17.6216 14.24L14.1016 12.15V8H12.6016Z" fill="#FF385C"/>
</g>
<defs>
<clipPath id="clip0_220_1919">
<rect width="24" height="24" fill="white" transform="translate(0.601562)"/>
</clipPath>
</defs>
</svg>
