<svg width="25" height="25" viewBox="0 0 25 25" fill="none" xmlns="http://www.w3.org/2000/svg">
<g clip-path="url(#clip0_7_265)">
<path d="M5.84457 10.4198C6.77716 7.59391 9.43282 5.56436 12.5784 5.56436C14.2693 5.56436 15.7966 6.16436 16.9966 7.14618L20.4875 3.65527C18.3602 1.80073 15.6329 0.655273 12.5784 0.655273C7.84844 0.655273 3.77612 3.35357 1.81836 7.3053L5.84457 10.4198Z" fill="#EA4335"/>
<path d="M16.6187 18.6676C15.5289 19.3713 14.1441 19.7459 12.578 19.7459C9.44445 19.7459 6.79709 17.7318 5.85495 14.9229L1.81543 17.99C3.77076 21.9486 7.84297 24.655 12.578 24.655C15.5108 24.655 18.3133 23.6124 20.4122 21.6546L16.6187 18.6676Z" fill="#34A853"/>
<path d="M20.4123 21.655C22.6073 19.6076 24.0327 16.5591 24.0327 12.6555C24.0327 11.9464 23.9236 11.1827 23.7599 10.4736H12.5781V15.11H19.0145C18.6969 16.6691 17.8444 17.8767 16.6189 18.668L20.4123 21.655Z" fill="#4A90E2"/>
<path d="M5.85511 14.9235C5.61645 14.212 5.48722 13.4494 5.48722 12.6556C5.48722 11.8739 5.61256 11.1225 5.84433 10.4202L1.81812 7.30566C1.01471 8.91607 0.578125 10.731 0.578125 12.6556C0.578125 14.5752 1.02291 16.3858 1.81559 17.9906L5.85511 14.9235Z" fill="#FBBC05"/>
</g>
<defs>
<clipPath id="clip0_7_265">
<rect width="24" height="24" fill="white" transform="translate(0.578125 0.655273)"/>
</clipPath>
</defs>
</svg>
