<svg width="23" height="23" viewBox="0 0 23 23" fill="none" xmlns="http://www.w3.org/2000/svg">
<g clip-path="url(#clip0_220_1913)">
<path d="M19.0347 5.85417H17.0363C17.1372 5.57 17.2013 5.25833 17.2013 4.9375C17.2013 3.41583 15.973 2.1875 14.4513 2.1875C13.4888 2.1875 12.6547 2.6825 12.1597 3.425L11.7013 4.03917L11.243 3.41583C10.748 2.6825 9.91383 2.1875 8.95133 2.1875C7.42967 2.1875 6.20133 3.41583 6.20133 4.9375C6.20133 5.25833 6.2655 5.57 6.36633 5.85417H4.368C3.3505 5.85417 2.54383 6.67 2.54383 7.6875L2.53467 17.7708C2.53467 18.7883 3.3505 19.6042 4.368 19.6042H19.0347C20.0522 19.6042 20.868 18.7883 20.868 17.7708V7.6875C20.868 6.67 20.0522 5.85417 19.0347 5.85417ZM14.4513 4.02083C14.9555 4.02083 15.368 4.43333 15.368 4.9375C15.368 5.44167 14.9555 5.85417 14.4513 5.85417C13.9472 5.85417 13.5347 5.44167 13.5347 4.9375C13.5347 4.43333 13.9472 4.02083 14.4513 4.02083ZM8.95133 4.02083C9.4555 4.02083 9.868 4.43333 9.868 4.9375C9.868 5.44167 9.4555 5.85417 8.95133 5.85417C8.44717 5.85417 8.03467 5.44167 8.03467 4.9375C8.03467 4.43333 8.44717 4.02083 8.95133 4.02083ZM19.0347 17.7708H4.368V15.9375H19.0347V17.7708ZM19.0347 13.1875H4.368V7.6875H9.02467L7.118 10.2817L8.603 11.3542L11.7013 7.1375L14.7997 11.3542L16.2847 10.2817L14.378 7.6875H19.0347V13.1875Z" fill="#FF385C"/>
</g>
<defs>
<clipPath id="clip0_220_1913">
<rect width="22" height="22" fill="white" transform="translate(0.701172 0.354492)"/>
</clipPath>
</defs>
</svg>
