<svg width="25" height="24" viewBox="0 0 25 24" fill="none" xmlns="http://www.w3.org/2000/svg">
<g clip-path="url(#clip0_220_1912)">
<path d="M21.6408 4.22C21.5908 4.1 21.5308 3.99 21.4608 3.88C21.3208 3.67 21.1308 3.48 20.9208 3.34C20.8108 3.27 20.7008 3.21 20.5808 3.16C20.3408 3.06 20.0808 3 19.8008 3H18.8008V1H16.8008V3H8.80078V1H6.80078V3H5.80078C5.38078 3 5.00078 3.13 4.68078 3.34C4.47078 3.48 4.28078 3.67 4.14078 3.88C4.07078 3.99 4.01078 4.1 3.96078 4.22C3.86078 4.46 3.80078 4.72 3.80078 5V19C3.80078 20.1 4.69078 21 5.80078 21H19.8008C20.0808 21 20.3408 20.94 20.5808 20.84C20.7008 20.79 20.8108 20.73 20.9208 20.66C21.1308 20.52 21.3208 20.33 21.4608 20.12C21.6708 19.8 21.8008 19.41 21.8008 19V5C21.8008 4.72 21.7408 4.46 21.6408 4.22ZM5.80078 19V5H19.8008V19H5.80078ZM12.8008 12.88C10.7708 12.88 6.80078 13.96 6.80078 16.46V18H18.8008V16.47C18.8008 13.96 14.8308 12.88 12.8008 12.88ZM9.11078 16C9.80078 15.44 11.4908 14.88 12.8008 14.88C14.1108 14.88 15.8108 15.44 16.4908 16H9.11078ZM12.8008 12C14.4508 12 15.8008 10.65 15.8008 9C15.8008 7.35 14.4508 6 12.8008 6C11.1508 6 9.80078 7.35 9.80078 9C9.80078 10.65 11.1508 12 12.8008 12ZM12.8008 8C13.3508 8 13.8008 8.45 13.8008 9C13.8008 9.55 13.3508 10 12.8008 10C12.2508 10 11.8008 9.55 11.8008 9C11.8008 8.45 12.2508 8 12.8008 8Z" fill="#FF385C"/>
</g>
<defs>
<clipPath id="clip0_220_1912">
<rect width="24" height="24" fill="white" transform="translate(0.800781)"/>
</clipPath>
</defs>
</svg>
