<svg width="24" height="25" viewBox="0 0 24 25" fill="none" xmlns="http://www.w3.org/2000/svg">
<g clip-path="url(#clip0_220_1900)">
<path d="M18.39 14.6852C16.71 13.8252 14.53 13.1252 12 13.1252C9.47 13.1252 7.29 13.8252 5.61 14.6852C4.61 15.1952 4 16.2252 4 17.3452V20.1252H20V17.3452C20 16.2252 19.39 15.1952 18.39 14.6852ZM18 18.1252H6V17.3452C6 16.9652 6.2 16.6252 6.52 16.4652C7.71 15.8552 9.63 15.1252 12 15.1252C14.37 15.1252 16.29 15.8552 17.48 16.4652C17.8 16.6252 18 16.9652 18 17.3452V18.1252Z" fill="#FF385C"/>
<path d="M12 12.1252C14.21 12.1252 16 10.3352 16 8.12524C16 6.75524 16 4.62524 16 4.62524C16 3.79524 15.33 3.12524 14.5 3.12524C13.98 3.12524 13.52 3.39524 13.25 3.79524C12.98 3.39524 12.52 3.12524 12 3.12524C11.48 3.12524 11.02 3.39524 10.75 3.79524C10.48 3.39524 10.02 3.12524 9.5 3.12524C8.67 3.12524 8 3.79524 8 4.62524C8 4.62524 8 6.74524 8 8.12524C8 10.3352 9.79 12.1252 12 12.1252ZM10 5.62524H14V8.12524C14 9.22524 13.1 10.1252 12 10.1252C10.9 10.1252 10 9.22524 10 8.12524V5.62524Z" fill="#FF385C"/>
</g>
<defs>
<clipPath id="clip0_220_1900">
<rect width="24" height="24" fill="white" transform="translate(0 0.125244)"/>
</clipPath>
</defs>
</svg>
