<svg width="28" height="20" viewBox="0 0 28 20" fill="none" xmlns="http://www.w3.org/2000/svg">
<path d="M24 5H20.25V0H2.75C1.375 0 0.25 1.125 0.25 2.5V16.25H2.75C2.75 18.325 4.425 20 6.5 20C8.575 20 10.25 18.325 10.25 16.25H17.75C17.75 18.325 19.425 20 21.5 20C23.575 20 25.25 18.325 25.25 16.25H27.75V10L24 5ZM23.375 6.875L25.825 10H20.25V6.875H23.375ZM6.5 17.5C5.8125 17.5 5.25 16.9375 5.25 16.25C5.25 15.5625 5.8125 15 6.5 15C7.1875 15 7.75 15.5625 7.75 16.25C7.75 16.9375 7.1875 17.5 6.5 17.5ZM9.275 13.75C8.5875 12.9875 7.6125 12.5 6.5 12.5C5.3875 12.5 4.4125 12.9875 3.725 13.75H2.75V2.5H17.75V13.75H9.275ZM21.5 17.5C20.8125 17.5 20.25 16.9375 20.25 16.25C20.25 15.5625 20.8125 15 21.5 15C22.1875 15 22.75 15.5625 22.75 16.25C22.75 16.9375 22.1875 17.5 21.5 17.5Z" fill="#565656"/>
</svg>
