<svg width="21" height="21" viewBox="0 0 21 21" fill="none" xmlns="http://www.w3.org/2000/svg">
<path d="M4.40162 2.36735C4.46864 3.36824 4.63621 4.34663 4.90432 5.28004L3.56378 6.62955C3.10576 5.28004 2.81531 3.85181 2.71477 2.36735H4.40162ZM15.4164 15.8849C16.3659 16.1549 17.3378 16.3235 18.3209 16.391V18.0667C16.8463 17.9654 15.4276 17.673 14.0759 17.2232L15.4164 15.8849ZM5.47405 0.118164H1.56414C0.949724 0.118164 0.447021 0.624231 0.447021 1.24276C0.447021 11.8027 8.94828 20.3608 19.438 20.3608C20.0524 20.3608 20.5551 19.8548 20.5551 19.2362V15.3114C20.5551 14.6929 20.0524 14.1868 19.438 14.1868C18.0528 14.1868 16.7011 13.9619 15.4499 13.5458C15.3382 13.5008 15.2153 13.4896 15.1036 13.4896C14.8131 13.4896 14.5339 13.602 14.3104 13.8157L11.8528 16.2898C8.69135 14.6591 6.09963 12.0613 4.49099 8.87874L6.94864 6.40464C7.26144 6.08975 7.35081 5.65116 7.22792 5.25755C6.81459 3.99801 6.59117 2.6485 6.59117 1.24276C6.59117 0.624231 6.08846 0.118164 5.47405 0.118164Z" fill="#FF385C"/>
</svg>
